<?xml version="1.0" encoding="UTF-8"?>
<!DOCTYPE svg PUBLIC "-//W3C//DTD SVG 1.1//EN" "http://www.w3.org/Graphics/SVG/1.1/DTD/svg11.dtd">
<svg xmlns="http://www.w3.org/2000/svg" version="1.1" width="550px" height="453px" style="shape-rendering:geometricPrecision; text-rendering:geometricPrecision; image-rendering:optimizeQuality; fill-rule:evenodd; clip-rule:evenodd" xmlns:xlink="http://www.w3.org/1999/xlink">
<g><path style="opacity:0.985" fill="#111213" d="M 505.5,18.5 C 507.967,18.2451 509.967,17.2451 511.5,15.5C 521.486,9.01932 532.153,7.85266 543.5,12C 548.299,16.2094 548.632,20.7094 544.5,25.5C 543.094,25.9731 542.427,26.9731 542.5,28.5C 541.5,28.8333 540.833,29.5 540.5,30.5C 534.027,36.9661 526.694,42.2994 518.5,46.5C 517.511,50.1073 517.177,53.774 517.5,57.5C 522.591,56.7561 525.591,58.9227 526.5,64C 525.593,68.4081 522.926,70.9081 518.5,71.5C 516.598,74.3373 515.931,77.6707 516.5,81.5C 517.362,87.0389 516.028,91.8722 512.5,96C 509.5,96.6667 506.5,96.6667 503.5,96C 496.588,85.6757 490.588,74.8424 485.5,63.5C 484.335,60.9781 483.002,60.9781 481.5,63.5C 479.95,64.4408 478.284,65.1075 476.5,65.5C 474.011,65.2407 472.344,66.2407 471.5,68.5C 469.287,69.7729 466.954,70.7729 464.5,71.5C 462.577,75.0293 461.911,79.0293 462.5,83.5C 461.423,90.1952 457.756,92.5285 451.5,90.5C 451.027,89.0937 450.027,88.427 448.5,88.5C 447.542,88.0472 446.708,87.3805 446,86.5C 444.595,82.1168 443.095,77.7834 441.5,73.5C 441.5,72.1667 440.833,71.5 439.5,71.5C 438.5,71.1667 437.833,70.5 437.5,69.5C 436.738,67.7376 435.404,66.7376 433.5,66.5C 429.876,64.0493 426.376,61.3826 423,58.5C 421.123,51.3757 423.79,47.0424 431,45.5C 437.342,46.8344 443.675,48.1677 450,49.5C 455.368,47.2325 460.535,44.5658 465.5,41.5C 467.552,40.9473 467.885,39.9473 466.5,38.5C 464.81,38.1436 463.81,37.1436 463.5,35.5C 462.738,33.7376 461.404,32.7376 459.5,32.5C 458.5,32.1667 457.833,31.5 457.5,30.5C 457.027,29.0937 456.027,28.427 454.5,28.5C 450.869,25.3707 447.369,22.0374 444,18.5C 442.5,9.33333 446.333,5.5 455.5,7C 463.418,9.79433 471.418,12.2943 479.5,14.5C 481.791,14.3779 483.791,13.5446 485.5,12C 491.68,10.6803 494.68,13.1803 494.5,19.5C 496.262,19.3573 497.929,19.6906 499.5,20.5C 501.45,19.6279 503.45,18.9612 505.5,18.5 Z"/></g>
<g><path style="opacity:0.993" fill="#0d0e10" d="M 335.5,27.5 C 335.973,28.9063 336.973,29.573 338.5,29.5C 342.118,30.5381 345.785,31.7048 349.5,33C 352.7,35.0995 356.033,36.9328 359.5,38.5C 360.035,40.4456 361.368,41.4456 363.5,41.5C 367.268,43.2191 370.935,45.2191 374.5,47.5C 376.487,45.6726 378.821,44.6726 381.5,44.5C 383.027,44.573 384.027,43.9063 384.5,42.5C 385.167,42.5 385.833,42.5 386.5,42.5C 388.086,41.5868 389.586,41.5868 391,42.5C 392.397,40.9297 393.897,39.5964 395.5,38.5C 402.096,35.1901 409.096,32.8567 416.5,31.5C 418.553,31.5979 420.22,30.9313 421.5,29.5C 427.276,27.0562 433.276,26.2228 439.5,27C 444.536,33.6538 442.869,37.9872 434.5,40C 424.388,42.5386 414.388,45.3719 404.5,48.5C 402.447,48.4021 400.78,49.0687 399.5,50.5C 395.162,52.6689 390.829,54.8356 386.5,57C 402.681,69.0139 416.681,83.1805 428.5,99.5C 428.738,101.404 429.738,102.738 431.5,103.5C 438.773,113.039 444.773,123.372 449.5,134.5C 449.229,136.38 449.896,137.713 451.5,138.5C 452.492,138.672 453.158,138.338 453.5,137.5C 455.262,136.738 456.262,135.404 456.5,133.5C 457.906,133.027 458.573,132.027 458.5,130.5C 459.906,130.027 460.573,129.027 460.5,127.5C 460.75,125.326 461.75,123.659 463.5,122.5C 464.906,122.027 465.573,121.027 465.5,119.5C 465.328,118.508 465.662,117.842 466.5,117.5C 467.906,117.027 468.573,116.027 468.5,114.5C 468.733,112.938 469.4,111.605 470.5,110.5C 471.906,110.027 472.573,109.027 472.5,107.5C 473.952,102.597 475.952,97.9301 478.5,93.5C 479.906,93.0269 480.573,92.0269 480.5,90.5C 485.07,87.4683 488.403,88.4683 490.5,93.5C 490.326,95.861 489.993,98.1944 489.5,100.5C 489.5,100.833 489.5,101.167 489.5,101.5C 487.896,102.287 487.229,103.62 487.5,105.5C 487.443,106.609 487.11,107.609 486.5,108.5C 485.094,108.973 484.427,109.973 484.5,111.5C 482.825,114.877 481.158,118.211 479.5,121.5C 478.094,121.973 477.427,122.973 477.5,124.5C 475.538,127.185 474.038,130.185 473,133.5C 468.152,140.344 463.319,147.177 458.5,154C 460.951,161.766 462.951,169.599 464.5,177.5C 464.595,179.786 465.262,181.786 466.5,183.5C 476.57,231.2 471.57,277.2 451.5,321.5C 450.094,321.973 449.427,322.973 449.5,324.5C 439.09,347.323 424.757,367.323 406.5,384.5C 405.167,385.167 404.167,386.167 403.5,387.5C 385.098,405.89 363.765,419.89 339.5,429.5C 336.562,429.273 334.229,430.273 332.5,432.5C 287.074,449.517 240.74,452.017 193.5,440C 188.329,438.303 183.329,436.47 178.5,434.5C 177.22,433.069 175.553,432.402 173.5,432.5C 163.588,429.366 154.088,425.366 145,420.5C 138.963,423.272 132.797,425.606 126.5,427.5C 124.847,427.66 123.514,428.326 122.5,429.5C 114.628,433.345 106.295,436.012 97.5,437.5C 94.2154,437.928 91.2154,438.928 88.5,440.5C 67.4258,447.26 46.4258,447.094 25.5,440C 23.2528,438.723 21.2528,437.223 19.5,435.5C 18.7377,433.738 17.4044,432.738 15.5,432.5C 10.9067,429.245 7.9067,424.912 6.5,419.5C 6.59794,417.447 5.93127,415.78 4.5,414.5C 1.22964,391.587 5.56297,370.254 17.5,350.5C 18.9063,350.027 19.573,349.027 19.5,347.5C 19.9423,344.657 20.9423,341.991 22.5,339.5C 24.8523,336.11 27.1856,332.777 29.5,329.5C 30.9063,329.027 31.573,328.027 31.5,326.5C 32.9063,326.027 33.573,325.027 33.5,323.5C 36.4013,317.933 40.0679,312.933 44.5,308.5C 47.3489,307.08 48.0156,305.08 46.5,302.5C 46.7709,300.62 46.1042,299.287 44.5,298.5C 24.9754,235.123 31.642,174.79 64.5,117.5C 65.9063,117.027 66.573,116.027 66.5,114.5C 68.2651,111.291 70.2651,108.291 72.5,105.5C 73.9063,105.027 74.573,104.027 74.5,102.5C 81.1008,92.5679 88.7674,83.5679 97.5,75.5C 98.8333,74.8333 99.8333,73.8333 100.5,72.5C 115.071,57.5518 131.737,45.5518 150.5,36.5C 152.027,36.573 153.027,35.9063 153.5,34.5C 213.254,6.45709 273.92,4.12375 335.5,27.5 Z M 51.5,320.5 C 52.5,321.167 53.5,321.833 54.5,322.5C 55.0115,325.022 56.0115,327.355 57.5,329.5C 57.427,331.027 58.0937,332.027 59.5,332.5C 70.7634,355.371 86.0968,375.037 105.5,391.5C 106.262,393.262 107.596,394.262 109.5,394.5C 113.091,398.299 117.091,401.633 121.5,404.5C 121.973,405.906 122.973,406.573 124.5,406.5C 126.5,408.167 128.5,409.833 130.5,411.5C 128.973,411.427 127.973,412.094 127.5,413.5C 124.673,414.108 122.007,415.108 119.5,416.5C 116.937,417.088 114.604,418.088 112.5,419.5C 105.839,420.743 99.5053,422.743 93.5,425.5C 90.9327,425.721 88.5994,426.388 86.5,427.5C 79.3696,428.759 72.3696,430.092 65.5,431.5C 57.4712,431.656 49.4712,431.323 41.5,430.5C 39.2854,429.732 36.9521,429.065 34.5,428.5C 33.4863,427.326 32.153,426.66 30.5,426.5C 22.4938,422.482 17.8271,416.149 16.5,407.5C 16.4255,401.471 16.7588,395.471 17.5,389.5C 22.7027,368.88 31.3694,349.88 43.5,332.5C 44.9063,332.027 45.573,331.027 45.5,329.5C 47.7349,326.709 49.7349,323.709 51.5,320.5 Z"/></g>
<g><path style="opacity:0.322" fill="#828282" d="M 511.5,15.5 C 509.967,17.2451 507.967,18.2451 505.5,18.5C 507.033,16.7549 509.033,15.7549 511.5,15.5 Z"/></g>
<g><path style="opacity:0.953" fill="#f3f3f3" d="M 453.5,65.5 C 452.292,66.2341 450.959,66.5674 449.5,66.5C 449.389,65.8826 449.056,65.3826 448.5,65C 452.927,61.3065 457.594,57.9732 462.5,55C 482.007,42.8335 502.007,31.5002 522.5,21C 526.761,19.6374 531.095,19.3041 535.5,20C 532.5,23 529.5,26 526.5,29C 502.106,41.1971 477.773,53.3637 453.5,65.5 Z"/></g>
<g><path style="opacity:1" fill="#7bd9ec" d="M 460.5,19.5 C 469.981,21.8268 479.314,24.6601 488.5,28C 485.235,30.549 481.735,32.7157 478,34.5C 472.511,30.3475 467.011,26.1809 461.5,22C 460.748,21.3292 460.414,20.4959 460.5,19.5 Z"/></g>
<g><path style="opacity:0.031" fill="#a2a2a2" d="M 544.5,25.5 C 544.573,27.0269 543.906,28.0269 542.5,28.5C 542.427,26.9731 543.094,25.9731 544.5,25.5 Z"/></g>
<g><path style="opacity:0.094" fill="#959595" d="M 335.5,27.5 C 337.027,27.427 338.027,28.0937 338.5,29.5C 336.973,29.573 335.973,28.9063 335.5,27.5 Z"/></g>
<g><path style="opacity:0.18" fill="#a19e9e" d="M 454.5,28.5 C 456.027,28.427 457.027,29.0937 457.5,30.5C 455.973,30.573 454.973,29.9063 454.5,28.5 Z"/></g>
<g><path style="opacity:0.004" fill="#bbbbbb" d="M 542.5,28.5 C 542.5,29.8333 541.833,30.5 540.5,30.5C 540.833,29.5 541.5,28.8333 542.5,28.5 Z"/></g>
<g><path style="opacity:0.208" fill="#969696" d="M 421.5,29.5 C 420.22,30.9313 418.553,31.5979 416.5,31.5C 417.78,30.0687 419.447,29.4021 421.5,29.5 Z"/></g>
<g><path style="opacity:0.424" fill="#888888" d="M 459.5,32.5 C 461.404,32.7376 462.738,33.7376 463.5,35.5C 461.596,35.2624 460.262,34.2624 459.5,32.5 Z"/></g>
<g><path style="opacity:0.31" fill="#8b8b8b" d="M 153.5,34.5 C 153.027,35.9063 152.027,36.573 150.5,36.5C 150.973,35.0937 151.973,34.427 153.5,34.5 Z"/></g>
<g><path style="opacity:0.435" fill="#8b8b8b" d="M 359.5,38.5 C 361.23,39.0256 362.564,40.0256 363.5,41.5C 361.368,41.4456 360.035,40.4456 359.5,38.5 Z"/></g>
<g><path style="opacity:0.869" fill="#444444" d="M 395.5,38.5 C 393.897,39.5964 392.397,40.9297 391,42.5C 389.586,41.5868 388.086,41.5868 386.5,42.5C 388.898,40.0257 391.898,38.6924 395.5,38.5 Z"/></g>
<g><path style="opacity:0.349" fill="#939696" d="M 466.5,38.5 C 467.885,39.9473 467.552,40.9473 465.5,41.5C 466.11,40.609 466.443,39.609 466.5,38.5 Z"/></g>
<g><path style="opacity:1" fill="#708191" d="M 185.5,34.5 C 186.552,34.3505 187.552,34.5172 188.5,35C 183.867,40.6349 178.867,45.9682 173.5,51C 158.97,54.68 146.47,61.8467 136,72.5C 137.403,66.9574 139.236,61.4574 141.5,56C 155.869,47.9808 170.536,40.8142 185.5,34.5 Z"/></g>
<g><path style="opacity:0.318" fill="#8f8f8f" d="M 384.5,42.5 C 384.027,43.9063 383.027,44.573 381.5,44.5C 381.973,43.0937 382.973,42.427 384.5,42.5 Z"/></g>
<g><path style="opacity:0.047" fill="#9d9d9d" d="M 404.5,48.5 C 403.22,49.9313 401.553,50.5979 399.5,50.5C 400.78,49.0687 402.447,48.4021 404.5,48.5 Z"/></g>
<g><path style="opacity:1" fill="#64b0be" d="M 435.5,57.5 C 435.735,56.9033 436.235,56.5699 437,56.5C 439.877,57.4032 442.71,58.4032 445.5,59.5C 445.113,60.7199 444.28,61.3865 443,61.5C 440.568,60.0342 438.068,58.7008 435.5,57.5 Z"/></g>
<g><path style="opacity:0.094" fill="#a9aaad" d="M 485.5,63.5 C 484.298,62.5946 482.964,62.5946 481.5,63.5C 483.002,60.9781 484.335,60.9781 485.5,63.5 Z"/></g>
<g><path style="opacity:1" fill="#798595" d="M 384.5,193.5 C 376.835,198.167 368.835,202 360.5,205C 359.671,203.184 358.837,201.351 358,199.5C 350.19,189.893 342.857,179.893 336,169.5C 332.312,164.814 328.312,160.481 324,156.5C 324.139,151.391 325.139,146.391 327,141.5C 327.667,138.5 327.667,135.5 327,132.5C 325.786,130.951 324.286,129.785 322.5,129C 317.68,128.854 312.846,129.021 308,129.5C 305.5,129.333 303,129.167 300.5,129C 299.692,128.692 299.025,128.192 298.5,127.5C 302.302,126.755 305.969,125.589 309.5,124C 317.16,124.153 324.827,124.153 332.5,124C 340.085,123.753 343.251,119.92 342,112.5C 335.833,109 331,104.167 327.5,98C 325.466,96.9944 323.3,96.4944 321,96.5C 313.211,98.0542 305.378,98.8875 297.5,99C 292.953,102.745 289.62,107.411 287.5,113C 282.54,112.383 278.873,114.216 276.5,118.5C 275.95,115.227 274.283,112.727 271.5,111C 264.833,107.333 258.167,103.667 251.5,100C 246.008,99.5141 244.175,102.014 246,107.5C 250.517,111.218 255.35,114.218 260.5,116.5C 259.508,116.328 258.842,116.662 258.5,117.5C 254.22,115.36 249.886,113.193 245.5,111C 244.167,108.667 242.833,106.333 241.5,104C 236.023,102.827 231.023,103.827 226.5,107C 219.699,105.809 214.699,108.142 211.5,114C 205.225,116.609 200.558,120.942 197.5,127C 192.511,127.499 187.511,127.666 182.5,127.5C 182.616,124.14 182.949,120.807 183.5,117.5C 190.634,117.715 197.634,116.882 204.5,115C 206.833,113.667 207.833,111.667 207.5,109C 206.898,105.648 205.898,102.481 204.5,99.5C 211.501,98.6721 217.501,95.8388 222.5,91C 227.014,88.6077 231.681,86.6077 236.5,85C 237.701,84.0975 238.535,82.9308 239,81.5C 240.069,85.2862 242.569,86.9529 246.5,86.5C 253.55,85.9966 260.55,85.1633 267.5,84C 270.682,77.4791 275.682,73.1457 282.5,71C 285.462,67.5118 284.795,64.8451 280.5,63C 277.518,62.502 274.518,62.3354 271.5,62.5C 271.284,60.3193 272.117,58.6526 274,57.5C 275.041,54.3637 274.207,51.8637 271.5,50C 266.411,49.1743 261.411,49.5076 256.5,51C 253,54.5 249.5,58 246,61.5C 245.438,63.8661 245.604,66.1994 246.5,68.5C 246.272,70.3969 245.272,71.7303 243.5,72.5C 242.594,70.6136 241.594,68.7803 240.5,67C 238.735,66.3603 237.068,66.5269 235.5,67.5C 234.5,67.5 233.5,67.5 232.5,67.5C 232.281,66.325 232.614,65.325 233.5,64.5C 240.568,60.5942 246.902,55.7608 252.5,50C 265.049,44.9717 277.383,45.4717 289.5,51.5C 289.755,53.3435 289.922,55.3435 290,57.5C 293.183,59.5234 296.683,60.0234 300.5,59C 305.133,57.0083 309.799,55.0083 314.5,53C 323.18,52.6878 331.847,52.6878 340.5,53C 342.954,51.1709 345.287,49.3376 347.5,47.5C 391.579,70.9165 423.579,105.583 443.5,151.5C 438.833,156.5 434.167,161.5 429.5,166.5C 427.684,165.185 426.017,163.685 424.5,162C 417.5,161.667 410.5,161.333 403.5,161C 400.389,160.556 397.723,159.223 395.5,157C 392.167,156.667 388.833,156.333 385.5,156C 379.911,153.401 374.577,150.401 369.5,147C 361.668,146.179 358.835,149.679 361,157.5C 365.833,163.667 370.667,169.833 375.5,176C 377.866,177.233 380.366,178.066 383,178.5C 385.822,177.549 388.655,177.049 391.5,177C 393.812,178.314 395.812,179.981 397.5,182C 396.516,183.657 395.516,185.323 394.5,187C 390.931,188.942 387.598,191.108 384.5,193.5 Z"/></g>
<g><path style="opacity:0.627" fill="#6d6d6d" d="M 476.5,65.5 C 475.101,66.8897 473.434,67.8897 471.5,68.5C 472.344,66.2407 474.011,65.2407 476.5,65.5 Z"/></g>
<g><path style="opacity:1" fill="#86d8ef" d="M 504.5,50.5 C 505.828,55.2876 506.495,60.4543 506.5,66C 506.333,71.1667 506.167,76.3333 506,81.5C 502.103,73.374 497.937,65.374 493.5,57.5C 497.059,54.8937 500.725,52.5603 504.5,50.5 Z"/></g>
<g><path style="opacity:0.435" fill="#808080" d="M 433.5,66.5 C 435.404,66.7376 436.738,67.7376 437.5,69.5C 435.596,69.2624 434.262,68.2624 433.5,66.5 Z"/></g>
<g><path style="opacity:0.216" fill="#bbbbbb" d="M 439.5,71.5 C 440.833,71.5 441.5,72.1667 441.5,73.5C 440.5,73.1667 439.833,72.5 439.5,71.5 Z"/></g>
<g><path style="opacity:1" fill="#66b9c3" d="M 453.5,65.5 C 454.206,78.3388 452.873,78.6721 449.5,66.5C 450.959,66.5674 452.292,66.2341 453.5,65.5 Z"/></g>
<g><path style="opacity:0.008" fill="#eeeeee" d="M 518.5,71.5 C 517.903,74.9412 517.237,78.2746 516.5,81.5C 515.931,77.6707 516.598,74.3373 518.5,71.5 Z"/></g>
<g><path style="opacity:0.204" fill="#838383" d="M 100.5,72.5 C 99.8333,73.8333 98.8333,74.8333 97.5,75.5C 97.5,73.5 98.5,72.5 100.5,72.5 Z"/></g>
<g><path style="opacity:0.048" fill="#a8a8a8" d="M 464.5,71.5 C 463.891,75.6047 463.225,79.6047 462.5,83.5C 461.911,79.0293 462.577,75.0293 464.5,71.5 Z"/></g>
<g><path style="opacity:1" fill="#7ad1ee" d="M 164.5,65.5 C 163.323,67.0315 161.989,68.5315 160.5,70C 158.128,72.019 155.461,73.6857 152.5,75C 148.981,77.6846 148.648,80.6846 151.5,84C 151.167,84.3333 150.833,84.6667 150.5,85C 152.715,85.1705 154.715,85.8372 156.5,87C 155.833,87.3333 155.167,87.6667 154.5,88C 157.048,89.9219 159.048,92.2553 160.5,95C 161.448,95.4828 162.448,95.6495 163.5,95.5C 162.187,100.807 160.854,106.14 159.5,111.5C 156.708,111.452 154.875,112.785 154,115.5C 153.231,121.863 151.731,128.029 149.5,134C 151.225,140.811 150.559,147.311 147.5,153.5C 145.149,153.98 142.815,154.314 140.5,154.5C 139.167,153.5 137.833,152.5 136.5,151.5C 133.788,153.26 130.788,153.927 127.5,153.5C 127.84,156.144 127.173,158.477 125.5,160.5C 126.167,161.167 126.833,161.833 127.5,162.5C 124.681,163.743 122.014,165.243 119.5,167C 117.098,167.814 114.765,167.647 112.5,166.5C 110.762,163.238 108.429,162.738 105.5,165C 106.579,165.956 107.745,166.789 109,167.5C 109.538,172.32 110.705,176.987 112.5,181.5C 114.577,180.012 115.577,178.012 115.5,175.5C 118.272,176.371 120.938,176.371 123.5,175.5C 123.16,178.144 123.827,180.477 125.5,182.5C 124.923,184.55 123.59,185.55 121.5,185.5C 118.239,204.058 120.239,221.891 127.5,239C 129.134,239.494 130.801,239.66 132.5,239.5C 132.357,241.262 132.691,242.929 133.5,244.5C 134.274,245.711 135.107,245.711 136,244.5C 137,245.5 138,246.5 139,247.5C 139.685,250.057 141.185,251.891 143.5,253C 142.269,254.183 142.269,255.349 143.5,256.5C 148.606,258.819 152.272,261.985 154.5,266C 157.703,267.678 159.37,266.511 159.5,262.5C 163.556,262.292 167.39,262.958 171,264.5C 173.687,264.802 175.687,263.802 177,261.5C 178.844,262.578 180.844,263.245 183,263.5C 185.848,263.202 188.681,262.869 191.5,262.5C 191.5,261.5 191.5,260.5 191.5,259.5C 185.792,259.258 180.125,259.592 174.5,260.5C 170.006,260.066 165.673,259.066 161.5,257.5C 160.548,255.955 160.215,254.288 160.5,252.5C 165.251,256.957 170.918,258.624 177.5,257.5C 182.998,257.048 188.331,256.381 193.5,255.5C 197.861,253.545 202.361,251.879 207,250.5C 209.927,251.717 212.427,253.55 214.5,256C 218.152,256.499 221.818,256.665 225.5,256.5C 225.749,260.458 225.082,264.124 223.5,267.5C 223.5,264.5 223.5,261.5 223.5,258.5C 220.15,258.665 216.817,258.498 213.5,258C 211.578,254.205 208.578,252.872 204.5,254C 202.341,254.912 200.175,255.745 198,256.5C 197.922,259.57 198.422,262.57 199.5,265.5C 200.833,265.5 202.167,265.5 203.5,265.5C 203.244,269.521 204.91,270.854 208.5,269.5C 209.478,269.977 210.311,270.643 211,271.5C 212.732,276.35 213.732,281.35 214,286.5C 216.233,288.515 218.4,291.181 220.5,294.5C 221.167,296.5 221.833,298.5 222.5,300.5C 223.244,303.984 223.244,307.651 222.5,311.5C 217.474,318.615 216.141,326.448 218.5,335C 214.243,336.626 210.576,338.959 207.5,342C 206.07,343.886 204.403,345.553 202.5,347C 203.308,347.308 203.975,347.808 204.5,348.5C 200.975,349.137 198.308,350.97 196.5,354C 192.879,354.178 190.212,355.845 188.5,359C 186.866,359.494 185.199,359.66 183.5,359.5C 181.504,362.887 179.837,366.554 178.5,370.5C 172.463,373.179 166.13,375.179 159.5,376.5C 154.613,379.61 149.279,380.943 143.5,380.5C 143.5,381.5 143.5,382.5 143.5,383.5C 144.873,383.343 146.207,383.51 147.5,384C 145.667,385.5 143.833,387 142,388.5C 141.667,388.167 141.333,387.833 141,387.5C 140,390.5 138,392.5 135,393.5C 134.517,394.448 134.351,395.448 134.5,396.5C 136.5,396.5 138.5,396.5 140.5,396.5C 140.248,393.068 141.581,392.068 144.5,393.5C 143.703,395.132 142.703,396.632 141.5,398C 141.759,399.261 142.426,400.261 143.5,401C 146.482,401.498 149.482,401.665 152.5,401.5C 150.312,403.755 147.646,404.589 144.5,404C 125.752,392.872 109.252,379.039 95,362.5C 95.9935,355.622 96.6601,348.622 97,341.5C 98.7409,340.242 100.574,339.242 102.5,338.5C 98.0533,344.747 97.3866,351.414 100.5,358.5C 97.3198,358.176 96.1531,359.51 97,362.5C 100.692,363.509 103.692,365.509 106,368.5C 106.617,369.449 106.451,370.282 105.5,371C 108.455,372.448 110.455,374.615 111.5,377.5C 114.785,377.269 117.285,378.603 119,381.5C 120.632,379.973 120.799,378.307 119.5,376.5C 116.777,375.103 115.944,373.436 117,371.5C 118.285,371.95 119.452,372.617 120.5,373.5C 121.086,373.291 121.586,372.957 122,372.5C 123.29,374.792 124.957,376.792 127,378.5C 127.414,378.043 127.914,377.709 128.5,377.5C 131.288,378.978 134.122,380.311 137,381.5C 137.483,380.552 137.649,379.552 137.5,378.5C 133.58,378.957 131.08,377.291 130,373.5C 128.58,371.578 126.747,370.245 124.5,369.5C 122.661,365.3 119.995,361.8 116.5,359C 115.767,357.234 115.433,355.401 115.5,353.5C 114.127,353.657 112.793,353.49 111.5,353C 113.061,352.059 114.395,350.892 115.5,349.5C 115.745,347.255 115.745,344.922 115.5,342.5C 116.689,341.571 118.022,341.238 119.5,341.5C 119.423,338.988 120.423,336.988 122.5,335.5C 123.329,330.533 123.829,325.533 124,320.5C 124.324,318.431 125.158,318.098 126.5,319.5C 128.237,315.409 129.904,311.243 131.5,307C 131.156,305.635 130.489,304.468 129.5,303.5C 130.809,301.024 132.642,299.024 135,297.5C 135.315,294.628 135.815,291.795 136.5,289C 136.2,286.976 135.367,286.476 134,287.5C 134.157,282.833 131.991,280.166 127.5,279.5C 127.785,277.712 127.452,276.045 126.5,274.5C 125.325,275.855 124.325,275.688 123.5,274C 124.833,272.16 124.666,271.66 123,272.5C 122.363,269.672 120.696,267.672 118,266.5C 116.913,268.932 116.413,268.598 116.5,265.5C 114.833,265.5 113.167,265.5 111.5,265.5C 108.898,261.211 106.565,256.544 104.5,251.5C 102.562,248.921 100.729,248.921 99,251.5C 96.338,248.722 94.838,245.388 94.5,241.5C 93.624,240.749 92.624,240.249 91.5,240C 92.2797,238.927 92.113,237.76 91,236.5C 87.6577,233.869 83.8244,232.536 79.5,232.5C 79.5,229.833 79.5,227.167 79.5,224.5C 78.1667,224.5 76.8333,224.5 75.5,224.5C 75.5,225.5 75.5,226.5 75.5,227.5C 72.5182,227.173 69.6849,227.173 67,227.5C 64.9336,225.69 63.1002,223.69 61.5,221.5C 60.7913,214.355 60.7913,207.355 61.5,200.5C 61.6667,199.833 61.8333,199.167 62,198.5C 62.3333,199.5 62.6667,200.5 63,201.5C 64.5381,195.551 64.5381,189.551 63,183.5C 61.7485,185.001 60.7485,186.668 60,188.5C 58.6085,183.843 58.4419,179.177 59.5,174.5C 59.4435,173.263 58.9435,172.263 58,171.5C 52.6774,185.101 49.6774,199.101 49,213.5C 48.3333,220.167 48.3333,226.833 49,233.5C 50.417,234.078 51.2504,235.078 51.5,236.5C 49.9826,236.489 48.8159,235.823 48,234.5C 46.6209,203.487 52.2876,173.82 65,145.5C 70.5015,142.417 75.8348,139.084 81,135.5C 81.8315,130.48 79.6648,127.48 74.5,126.5C 74.9858,124.503 76.1525,123.169 78,122.5C 84.3225,123.035 90.4892,124.035 96.5,125.5C 98.6934,125.674 100.527,125.007 102,123.5C 101.958,118.064 102.791,112.731 104.5,107.5C 102.994,101.838 101.827,96.1712 101,90.5C 108.477,82.6908 116.311,75.1908 124.5,68C 125.332,67.3123 125.998,67.479 126.5,68.5C 123.95,72.5188 123.117,76.8522 124,81.5C 128.06,88.4676 133.226,89.3009 139.5,84C 146.603,76.0484 154.937,69.8817 164.5,65.5 Z"/></g>
<g><path style="opacity:0.188" fill="#8f8f8f" d="M 448.5,88.5 C 450.027,88.427 451.027,89.0937 451.5,90.5C 449.973,90.573 448.973,89.9063 448.5,88.5 Z"/></g>
<g><path style="opacity:0.122" fill="#a7a7a7" d="M 480.5,90.5 C 480.573,92.0269 479.906,93.0269 478.5,93.5C 478.427,91.9731 479.094,90.9731 480.5,90.5 Z"/></g>
<g><path style="opacity:0.098" fill="#adadad" d="M 490.5,93.5 C 491.867,96.0118 491.534,98.3452 489.5,100.5C 489.993,98.1944 490.326,95.861 490.5,93.5 Z"/></g>
<g><path style="opacity:1" fill="#05080b" d="M 258.5,117.5 C 263.397,119.203 265.564,122.537 265,127.5C 261.895,132.443 257.728,136.109 252.5,138.5C 247.741,137.07 246.408,134.07 248.5,129.5C 249.833,128.5 251.167,127.5 252.5,126.5C 248.372,124.602 244.372,122.435 240.5,120C 238.457,118.292 236.79,116.292 235.5,114C 233.12,115.282 230.453,116.282 227.5,117C 225.19,117.497 222.857,117.663 220.5,117.5C 220.703,119.39 220.037,120.89 218.5,122C 215.102,123.357 212.102,125.19 209.5,127.5C 206.694,131.137 203.361,134.304 199.5,137C 196.118,137.176 192.785,137.676 189.5,138.5C 190.833,138.833 192.167,139.167 193.5,139.5C 199.764,138.535 205.764,136.702 211.5,134C 220.87,132.917 230.203,132.751 239.5,133.5C 240.731,134.718 241.898,136.051 243,137.5C 243.218,140.426 243.718,143.26 244.5,146C 251.76,148.922 259.094,151.755 266.5,154.5C 267.626,152.207 268.959,150.04 270.5,148C 272.199,147.042 274.033,146.542 276,146.5C 282.276,147.611 288.443,149.111 294.5,151C 300.833,151.667 307.167,151.667 313.5,151C 314.888,147.283 315.888,143.45 316.5,139.5C 309.46,140.997 302.46,140.83 295.5,139C 290.563,135.858 288.063,131.358 288,125.5C 286.186,124.24 284.353,124.24 282.5,125.5C 286.795,129.864 286.462,133.697 281.5,137C 277.114,138.057 273.947,136.557 272,132.5C 269.829,128.158 267.662,123.824 265.5,119.5C 263.971,118.237 262.305,117.237 260.5,116.5C 255.35,114.218 250.517,111.218 246,107.5C 244.175,102.014 246.008,99.5141 251.5,100C 258.167,103.667 264.833,107.333 271.5,111C 274.283,112.727 275.95,115.227 276.5,118.5C 278.873,114.216 282.54,112.383 287.5,113C 289.62,107.411 292.953,102.745 297.5,99C 305.378,98.8875 313.211,98.0542 321,96.5C 323.3,96.4944 325.466,96.9944 327.5,98C 331,104.167 335.833,109 342,112.5C 343.251,119.92 340.085,123.753 332.5,124C 324.827,124.153 317.16,124.153 309.5,124C 305.969,125.589 302.302,126.755 298.5,127.5C 299.025,128.192 299.692,128.692 300.5,129C 303,129.167 305.5,129.333 308,129.5C 312.846,129.021 317.68,128.854 322.5,129C 324.286,129.785 325.786,130.951 327,132.5C 327.667,135.5 327.667,138.5 327,141.5C 325.139,146.391 324.139,151.391 324,156.5C 328.312,160.481 332.312,164.814 336,169.5C 342.857,179.893 350.19,189.893 358,199.5C 358.837,201.351 359.671,203.184 360.5,205C 368.835,202 376.835,198.167 384.5,193.5C 387.991,193.909 391.325,194.909 394.5,196.5C 392.712,197.283 391.712,198.616 391.5,200.5C 390.426,201.885 389.093,203.051 387.5,204C 380.231,208.133 372.898,211.966 365.5,215.5C 362.555,216.468 359.555,216.634 356.5,216C 354.63,213.96 352.63,212.127 350.5,210.5C 348.779,204.072 345.279,198.739 340,194.5C 333.724,184.558 327.057,174.892 320,165.5C 319.48,167.289 319.813,168.956 321,170.5C 324.276,176.108 327.943,181.442 332,186.5C 334.73,192.293 337.73,197.96 341,203.5C 343.047,207.048 345.88,209.715 349.5,211.5C 352.296,214.797 355.296,217.964 358.5,221C 360.352,221.773 361.686,221.273 362.5,219.5C 368.342,218.72 374.009,217.22 379.5,215C 384.612,214.224 387.612,216.391 388.5,221.5C 386.277,233.677 381.444,244.677 374,254.5C 367.276,261.559 360.276,268.226 353,274.5C 351.667,276.5 350.333,278.5 349,280.5C 348.967,288.348 349.467,296.182 350.5,304C 351.464,310.777 349.464,316.443 344.5,321C 338.77,324.062 333.603,327.896 329,332.5C 328.667,337.167 328.333,341.833 328,346.5C 326.795,350.877 323.961,353.21 319.5,353.5C 314.834,368.677 305.501,380.177 291.5,388C 289.866,388.494 288.199,388.66 286.5,388.5C 281.29,388.608 276.29,389.275 271.5,390.5C 260.961,391.129 255.794,386.129 256,375.5C 254.166,370.338 251.499,365.672 248,361.5C 245.99,351.485 242.323,342.152 237,333.5C 233.295,325.472 233.961,317.805 239,310.5C 239.739,304.442 239.406,298.442 238,292.5C 233.667,286.833 229.333,281.167 225,275.5C 223.748,272.986 223.248,270.32 223.5,267.5C 225.082,264.124 225.749,260.458 225.5,256.5C 221.818,256.665 218.152,256.499 214.5,256C 212.427,253.55 209.927,251.717 207,250.5C 202.361,251.879 197.861,253.545 193.5,255.5C 188.821,255.334 184.155,255.501 179.5,256C 178.584,256.278 177.918,256.778 177.5,257.5C 170.918,258.624 165.251,256.957 160.5,252.5C 157.695,249.169 154.528,246.169 151,243.5C 147.433,237.264 143.1,231.597 138,226.5C 137.138,224.913 136.471,223.246 136,221.5C 137.884,209.995 138.884,198.329 139,186.5C 144.118,175.584 151.951,167.25 162.5,161.5C 163.685,158.407 165.019,155.407 166.5,152.5C 171.727,148.393 176.727,144.06 181.5,139.5C 176.138,139.307 172.638,136.641 171,131.5C 168.696,111.97 177.196,103.97 196.5,107.5C 196.338,105.176 195.172,103.509 193,102.5C 193.997,97.7869 193.663,93.1202 192,88.5C 186.805,94.3063 182.639,93.8063 179.5,87C 179.625,85.3732 180.125,83.8732 181,82.5C 184.297,79.4333 188.131,77.2666 192.5,76C 194.141,71.6924 197.141,68.6924 201.5,67C 208.587,66.0865 211.754,69.2532 211,76.5C 212.362,79.2356 214.196,81.5689 216.5,83.5C 220.376,81.606 224.043,79.4393 227.5,77C 226.685,75.3566 225.685,73.8566 224.5,72.5C 225.542,71.2089 226.708,71.2089 228,72.5C 228.309,71.2341 228.809,70.0674 229.5,69C 231.708,68.8091 233.708,68.3091 235.5,67.5C 237.068,66.5269 238.735,66.3603 240.5,67C 241.594,68.7803 242.594,70.6136 243.5,72.5C 245.272,71.7303 246.272,70.3969 246.5,68.5C 245.604,66.1994 245.438,63.8661 246,61.5C 249.5,58 253,54.5 256.5,51C 261.411,49.5076 266.411,49.1743 271.5,50C 274.207,51.8637 275.041,54.3637 274,57.5C 272.117,58.6526 271.284,60.3193 271.5,62.5C 274.518,62.3354 277.518,62.502 280.5,63C 284.795,64.8451 285.462,67.5118 282.5,71C 275.682,73.1457 270.682,77.4791 267.5,84C 260.55,85.1633 253.55,85.9966 246.5,86.5C 242.569,86.9529 240.069,85.2862 239,81.5C 238.535,82.9308 237.701,84.0975 236.5,85C 231.681,86.6077 227.014,88.6077 222.5,91C 217.501,95.8388 211.501,98.6721 204.5,99.5C 205.898,102.481 206.898,105.648 207.5,109C 207.833,111.667 206.833,113.667 204.5,115C 197.634,116.882 190.634,117.715 183.5,117.5C 182.949,120.807 182.616,124.14 182.5,127.5C 187.511,127.666 192.511,127.499 197.5,127C 200.558,120.942 205.225,116.609 211.5,114C 214.699,108.142 219.699,105.809 226.5,107C 231.023,103.827 236.023,102.827 241.5,104C 242.833,106.333 244.167,108.667 245.5,111C 249.886,113.193 254.22,115.36 258.5,117.5 Z"/></g>
<g><path style="opacity:1" fill="#5a858c" d="M 202.5,83.5 C 204.641,84.7551 205.307,86.4218 204.5,88.5C 202.783,87.3315 202.116,85.6648 202.5,83.5 Z"/></g>
<g><path style="opacity:1" fill="#6bc9e2" d="M 260.5,59.5 C 261.314,61.631 261.814,63.9644 262,66.5C 265.367,69.7897 264.867,72.6231 260.5,75C 258.421,75.8077 256.421,75.641 254.5,74.5C 256.164,71.103 256.997,67.4363 257,63.5C 258.376,62.2949 259.542,60.9616 260.5,59.5 Z"/></g>
<g><path style="opacity:0.447" fill="#8e8e8f" d="M 428.5,99.5 C 430.262,100.262 431.262,101.596 431.5,103.5C 429.738,102.738 428.738,101.404 428.5,99.5 Z"/></g>
<g><path style="opacity:0.337" fill="#8f8f8f" d="M 74.5,102.5 C 74.573,104.027 73.9063,105.027 72.5,105.5C 72.427,103.973 73.0937,102.973 74.5,102.5 Z"/></g>
<g><path style="opacity:0.137" fill="#aaaaaa" d="M 489.5,101.5 C 489.34,103.153 488.674,104.486 487.5,105.5C 487.229,103.62 487.896,102.287 489.5,101.5 Z"/></g>
<g><path style="opacity:1" fill="#707c87" d="M 90.5,102.5 C 91.1174,102.611 91.6174,102.944 92,103.5C 92.498,106.482 92.6646,109.482 92.5,112.5C 89.7531,112.813 87.0865,112.48 84.5,111.5C 86.5258,108.482 88.5258,105.482 90.5,102.5 Z"/></g>
<g><path style="opacity:0.031" fill="#c8c8c8" d="M 472.5,107.5 C 472.573,109.027 471.906,110.027 470.5,110.5C 470.427,108.973 471.094,107.973 472.5,107.5 Z"/></g>
<g><path style="opacity:0.059" fill="#969696" d="M 486.5,108.5 C 486.573,110.027 485.906,111.027 484.5,111.5C 484.427,109.973 485.094,108.973 486.5,108.5 Z"/></g>
<g><path style="opacity:1" fill="#6cbed8" d="M 317.5,106.5 C 321.44,107.907 324.774,110.407 327.5,114C 320.523,113.603 313.523,113.603 306.5,114C 304.866,115.308 303.032,116.142 301,116.5C 299.338,116.612 298.171,115.946 297.5,114.5C 299.607,112.47 301.607,110.303 303.5,108C 305.991,107.741 308.491,107.907 311,108.5C 313.484,108.503 315.651,107.837 317.5,106.5 Z"/></g>
<g><path style="opacity:0.071" fill="#9c9c9c" d="M 66.5,114.5 C 66.573,116.027 65.9063,117.027 64.5,117.5C 64.427,115.973 65.0937,114.973 66.5,114.5 Z"/></g>
<g><path style="opacity:0.145" fill="#9d9d9d" d="M 468.5,114.5 C 468.573,116.027 467.906,117.027 466.5,117.5C 466.427,115.973 467.094,114.973 468.5,114.5 Z"/></g>
<g><path style="opacity:0.165" fill="#7a7a7a" d="M 465.5,119.5 C 465.573,121.027 464.906,122.027 463.5,122.5C 463.427,120.973 464.094,119.973 465.5,119.5 Z"/></g>
<g><path style="opacity:0.047" fill="#b6b6b6" d="M 479.5,121.5 C 479.573,123.027 478.906,124.027 477.5,124.5C 477.427,122.973 478.094,121.973 479.5,121.5 Z"/></g>
<g><path style="opacity:0.427" fill="#848484" d="M 460.5,127.5 C 460.573,129.027 459.906,130.027 458.5,130.5C 458.427,128.973 459.094,127.973 460.5,127.5 Z"/></g>
<g><path style="opacity:1" fill="#83cfde" d="M 209.5,127.5 C 209.249,129.17 208.582,130.67 207.5,132C 215.608,131.914 223.941,131.414 232.5,130.5C 234.5,130.667 236.5,130.833 238.5,131C 239.252,131.671 239.586,132.504 239.5,133.5C 230.203,132.751 220.87,132.917 211.5,134C 205.764,136.702 199.764,138.535 193.5,139.5C 192.167,139.167 190.833,138.833 189.5,138.5C 192.785,137.676 196.118,137.176 199.5,137C 203.361,134.304 206.694,131.137 209.5,127.5 Z"/></g>
<g><path style="opacity:0.192" fill="#8c8c8c" d="M 458.5,130.5 C 458.573,132.027 457.906,133.027 456.5,133.5C 456.427,131.973 457.094,130.973 458.5,130.5 Z"/></g>
<g><path style="opacity:1" fill="#7bd5f1" d="M 258.5,117.5 C 258.842,116.662 259.508,116.328 260.5,116.5C 262.305,117.237 263.971,118.237 265.5,119.5C 267.662,123.824 269.829,128.158 272,132.5C 273.947,136.557 277.114,138.057 281.5,137C 286.462,133.697 286.795,129.864 282.5,125.5C 284.353,124.24 286.186,124.24 288,125.5C 288.063,131.358 290.563,135.858 295.5,139C 302.46,140.83 309.46,140.997 316.5,139.5C 315.888,143.45 314.888,147.283 313.5,151C 307.167,151.667 300.833,151.667 294.5,151C 288.443,149.111 282.276,147.611 276,146.5C 274.033,146.542 272.199,147.042 270.5,148C 268.959,150.04 267.626,152.207 266.5,154.5C 259.094,151.755 251.76,148.922 244.5,146C 243.718,143.26 243.218,140.426 243,137.5C 241.898,136.051 240.731,134.718 239.5,133.5C 239.586,132.504 239.252,131.671 238.5,131C 236.5,130.833 234.5,130.667 232.5,130.5C 223.941,131.414 215.608,131.914 207.5,132C 208.582,130.67 209.249,129.17 209.5,127.5C 212.102,125.19 215.102,123.357 218.5,122C 220.037,120.89 220.703,119.39 220.5,117.5C 222.857,117.663 225.19,117.497 227.5,117C 230.453,116.282 233.12,115.282 235.5,114C 236.79,116.292 238.457,118.292 240.5,120C 244.372,122.435 248.372,124.602 252.5,126.5C 251.167,127.5 249.833,128.5 248.5,129.5C 246.408,134.07 247.741,137.07 252.5,138.5C 257.728,136.109 261.895,132.443 265,127.5C 265.564,122.537 263.397,119.203 258.5,117.5 Z"/></g>
<g><path style="opacity:0.302" fill="#838383" d="M 456.5,133.5 C 456.262,135.404 455.262,136.738 453.5,137.5C 453.738,135.596 454.738,134.262 456.5,133.5 Z"/></g>
<g><path style="opacity:0.086" fill="#b1b1b1" d="M 449.5,134.5 C 450.674,135.514 451.34,136.847 451.5,138.5C 449.896,137.713 449.229,136.38 449.5,134.5 Z"/></g>
<g><path style="opacity:1" fill="#7cd5f3" d="M 279.5,36.5 C 277.359,35.8367 275.025,35.5034 272.5,35.5C 268.553,35.3629 264.886,36.0296 261.5,37.5C 256.627,37.7657 251.96,38.9324 247.5,41C 238.726,47.4732 230.226,54.3066 222,61.5C 220.949,65.6964 221.783,69.3631 224.5,72.5C 225.685,73.8566 226.685,75.3566 227.5,77C 224.043,79.4393 220.376,81.606 216.5,83.5C 214.196,81.5689 212.362,79.2356 211,76.5C 211.754,69.2532 208.587,66.0865 201.5,67C 197.141,68.6924 194.141,71.6924 192.5,76C 188.131,77.2666 184.297,79.4333 181,82.5C 180.125,83.8732 179.625,85.3732 179.5,87C 182.639,93.8063 186.805,94.3063 192,88.5C 193.663,93.1202 193.997,97.7869 193,102.5C 195.172,103.509 196.338,105.176 196.5,107.5C 177.196,103.97 168.696,111.97 171,131.5C 172.638,136.641 176.138,139.307 181.5,139.5C 176.727,144.06 171.727,148.393 166.5,152.5C 165.019,155.407 163.685,158.407 162.5,161.5C 151.951,167.25 144.118,175.584 139,186.5C 138.884,198.329 137.884,209.995 136,221.5C 136.471,223.246 137.138,224.913 138,226.5C 143.1,231.597 147.433,237.264 151,243.5C 154.528,246.169 157.695,249.169 160.5,252.5C 160.215,254.288 160.548,255.955 161.5,257.5C 165.673,259.066 170.006,260.066 174.5,260.5C 180.125,259.592 185.792,259.258 191.5,259.5C 191.5,260.5 191.5,261.5 191.5,262.5C 188.681,262.869 185.848,263.202 183,263.5C 180.844,263.245 178.844,262.578 177,261.5C 175.687,263.802 173.687,264.802 171,264.5C 167.39,262.958 163.556,262.292 159.5,262.5C 159.37,266.511 157.703,267.678 154.5,266C 152.272,261.985 148.606,258.819 143.5,256.5C 142.269,255.349 142.269,254.183 143.5,253C 141.185,251.891 139.685,250.057 139,247.5C 138,246.5 137,245.5 136,244.5C 135.107,245.711 134.274,245.711 133.5,244.5C 132.691,242.929 132.357,241.262 132.5,239.5C 130.801,239.66 129.134,239.494 127.5,239C 120.239,221.891 118.239,204.058 121.5,185.5C 123.59,185.55 124.923,184.55 125.5,182.5C 123.827,180.477 123.16,178.144 123.5,175.5C 120.938,176.371 118.272,176.371 115.5,175.5C 115.577,178.012 114.577,180.012 112.5,181.5C 110.705,176.987 109.538,172.32 109,167.5C 107.745,166.789 106.579,165.956 105.5,165C 108.429,162.738 110.762,163.238 112.5,166.5C 114.765,167.647 117.098,167.814 119.5,167C 122.014,165.243 124.681,163.743 127.5,162.5C 126.833,161.833 126.167,161.167 125.5,160.5C 127.173,158.477 127.84,156.144 127.5,153.5C 130.788,153.927 133.788,153.26 136.5,151.5C 137.833,152.5 139.167,153.5 140.5,154.5C 142.815,154.314 145.149,153.98 147.5,153.5C 150.559,147.311 151.225,140.811 149.5,134C 151.731,128.029 153.231,121.863 154,115.5C 154.875,112.785 156.708,111.452 159.5,111.5C 160.854,106.14 162.187,100.807 163.5,95.5C 162.448,95.6495 161.448,95.4828 160.5,95C 159.048,92.2553 157.048,89.9219 154.5,88C 155.167,87.6667 155.833,87.3333 156.5,87C 154.715,85.8372 152.715,85.1705 150.5,85C 150.833,84.6667 151.167,84.3333 151.5,84C 148.648,80.6846 148.981,77.6846 152.5,75C 155.461,73.6857 158.128,72.019 160.5,70C 161.989,68.5315 163.323,67.0315 164.5,65.5C 169.316,64.6739 174.316,64.1739 179.5,64C 185.18,62.308 187.68,58.4747 187,52.5C 195.07,44.1509 203.236,35.9843 211.5,28C 254.317,20.3433 295.651,25.01 335.5,42C 324.213,40.208 313.38,41.708 303,46.5C 295.294,42.8756 287.461,39.5423 279.5,36.5 Z"/></g>
<g><path style="opacity:1" fill="#27545f" d="M 279.5,36.5 C 273.491,36.701 267.491,37.0343 261.5,37.5C 264.886,36.0296 268.553,35.3629 272.5,35.5C 275.025,35.5034 277.359,35.8367 279.5,36.5 Z"/></g>
<g><path style="opacity:1" fill="#5baab1" d="M 377.5,164.5 C 377.56,163.957 377.893,163.624 378.5,163.5C 381.847,164.772 385.18,165.938 388.5,167C 387.226,168.221 385.726,169.054 384,169.5C 381.683,168.015 379.516,166.348 377.5,164.5 Z"/></g>
<g><path style="opacity:1" fill="#7c8898" d="M 219.5,143.5 C 223.833,143.5 228.167,143.5 232.5,143.5C 231.814,147.287 232.814,150.454 235.5,153C 244.833,157 254.167,161 263.5,165C 266.167,165.667 268.833,165.667 271.5,165C 273.949,162.595 276.283,160.095 278.5,157.5C 287.868,160.94 297.535,162.274 307.5,161.5C 309.797,170.426 313.964,178.426 320,185.5C 324.365,196.29 330.032,206.29 337,215.5C 343.5,219.333 348.667,224.5 352.5,231C 354.034,231.923 355.701,232.423 357.5,232.5C 363.439,231.223 369.273,229.557 375,227.5C 375.5,227.833 376,228.167 376.5,228.5C 370.434,242.393 361.268,253.727 349,262.5C 345.667,266.5 342.333,270.5 339,274.5C 335.781,282.125 335.781,289.791 339,297.5C 339.667,301.833 339.667,306.167 339,310.5C 332,316.167 325,321.833 318,327.5C 317.077,329.034 316.577,330.701 316.5,332.5C 317.442,336.476 317.609,340.476 317,344.5C 314.242,345.795 311.742,347.461 309.5,349.5C 308.495,353.682 306.995,357.682 305,361.5C 300.14,366.36 295.306,371.194 290.5,376C 288.913,376.862 287.246,377.529 285.5,378C 279.962,378.236 274.462,378.736 269,379.5C 268.228,379.355 267.561,379.022 267,378.5C 266.667,375.5 266.333,372.5 266,369.5C 259.488,361.636 255.488,352.636 254,342.5C 251.588,337.341 248.921,332.341 246,327.5C 244.938,321.607 246.271,316.274 250,311.5C 250.761,303.391 250.094,295.391 248,287.5C 244.045,281.877 239.712,276.543 235,271.5C 236.052,264.572 236.386,257.572 236,250.5C 231.412,246.176 225.912,244.342 219.5,245C 211.196,238.021 202.529,237.688 193.5,244C 185.771,244.517 178.104,245.184 170.5,246C 167.275,242.807 163.775,239.974 160,237.5C 156.433,231.264 152.1,225.597 147,220.5C 147.588,214.366 148.421,208.199 149.5,202C 149.125,198.468 148.958,194.968 149,191.5C 151.919,186.66 155.086,181.994 158.5,177.5C 163.65,173.847 168.483,169.847 173,165.5C 174.044,163.285 174.71,160.952 175,158.5C 178.358,155.642 181.858,152.975 185.5,150.5C 189.453,149.985 193.453,149.819 197.5,150C 204.768,147.188 212.101,145.022 219.5,143.5 Z"/></g>
<g><path style="opacity:1" fill="#748494" d="M 446.5,165.5 C 447.79,166.058 448.623,167.058 449,168.5C 454.863,183.063 456.03,198.063 452.5,213.5C 448.548,203.141 445.714,192.474 444,181.5C 442.518,179.02 440.685,176.853 438.5,175C 440.988,171.679 443.655,168.512 446.5,165.5 Z"/></g>
<g><path style="opacity:0.035" fill="#b1b1b1" d="M 464.5,177.5 C 466.074,179.102 466.741,181.102 466.5,183.5C 465.262,181.786 464.595,179.786 464.5,177.5 Z"/></g>
<g><path style="opacity:1" fill="#78d5e4" d="M 350.5,210.5 C 350.5,211.167 350.167,211.5 349.5,211.5C 345.88,209.715 343.047,207.048 341,203.5C 337.73,197.96 334.73,192.293 332,186.5C 327.943,181.442 324.276,176.108 321,170.5C 319.813,168.956 319.48,167.289 320,165.5C 327.057,174.892 333.724,184.558 340,194.5C 345.279,198.739 348.779,204.072 350.5,210.5 Z"/></g>
<g><path style="opacity:1" fill="#7bd2ee" d="M 433.5,191.5 C 434.117,191.611 434.617,191.944 435,192.5C 438.474,203.257 442.141,213.924 446,224.5C 449.216,228.065 452.716,228.398 456.5,225.5C 457.486,229.97 457.819,234.637 457.5,239.5C 456.839,258.443 453.506,276.777 447.5,294.5C 448.329,288.513 449.162,282.513 450,276.5C 450.333,276.833 450.667,277.167 451,277.5C 452.592,272.699 452.759,267.866 451.5,263C 452.43,260.756 453.597,258.59 455,256.5C 455.812,249.253 455.646,242.086 454.5,235C 455.861,233.416 456.528,231.582 456.5,229.5C 452.033,229.133 447.7,229.633 443.5,231C 443.167,231.333 442.833,231.667 442.5,232C 444.037,233.11 444.703,234.61 444.5,236.5C 442.856,236.714 441.356,236.38 440,235.5C 439.833,236.167 439.667,236.833 439.5,237.5C 441.526,245.029 442.026,252.696 441,260.5C 440.194,264.158 439.027,267.658 437.5,271C 438.76,273.213 439.426,275.713 439.5,278.5C 439.333,280.833 439.167,283.167 439,285.5C 437.333,286.167 435.667,286.833 434,287.5C 433.409,293.063 432.909,298.396 432.5,303.5C 428.21,302.987 424.377,303.987 421,306.5C 419.461,310.14 417.461,313.473 415,316.5C 414.405,317.899 414.572,319.232 415.5,320.5C 415,321.5 414.5,322.5 414,323.5C 413.355,322.354 412.522,321.354 411.5,320.5C 412.167,319.833 412.833,319.167 413.5,318.5C 411.1,317.915 409.1,316.748 407.5,315C 411.163,312.693 411.33,310.193 408,307.5C 407.503,304.854 407.336,302.187 407.5,299.5C 403.566,299.979 399.899,299.312 396.5,297.5C 395.808,298.025 395.308,298.692 395,299.5C 393.515,295.561 392.348,291.561 391.5,287.5C 387.932,287.241 386.599,285.241 387.5,281.5C 386.178,281.67 385.011,281.337 384,280.5C 383.502,277.518 383.335,274.518 383.5,271.5C 382.5,271.5 381.5,271.5 380.5,271.5C 380.5,270.5 380.5,269.5 380.5,268.5C 382.143,268.52 383.476,267.853 384.5,266.5C 385.498,263.836 386.998,261.503 389,259.5C 389.813,257.564 390.313,255.564 390.5,253.5C 393.718,253.349 394.051,252.516 391.5,251C 392.77,250.1 393.77,248.934 394.5,247.5C 395.749,249.475 397.249,249.809 399,248.5C 398.785,245.189 398.785,241.856 399,238.5C 403.643,231.905 404.143,232.072 400.5,239C 402.047,239.333 403.38,238.833 404.5,237.5C 405.702,234.226 406.702,230.893 407.5,227.5C 407.284,225.616 406.617,223.949 405.5,222.5C 408.629,216.901 410.629,210.901 411.5,204.5C 412.833,204.5 414.167,204.5 415.5,204.5C 415.5,203.5 415.5,202.5 415.5,201.5C 420.788,200.954 423.954,203.288 425,208.5C 425.311,206.444 425.811,204.444 426.5,202.5C 432.442,201.211 434.776,197.544 433.5,191.5 Z"/></g>
<g><path style="opacity:1" fill="#5fabb7" d="M 350.5,210.5 C 352.63,212.127 354.63,213.96 356.5,216C 359.555,216.634 362.555,216.468 365.5,215.5C 363.55,217.026 361.217,218.026 358.5,218.5C 359.689,219.429 361.022,219.762 362.5,219.5C 361.686,221.273 360.352,221.773 358.5,221C 355.296,217.964 352.296,214.797 349.5,211.5C 350.167,211.5 350.5,211.167 350.5,210.5 Z"/></g>
<g><path style="opacity:1" fill="#497586" d="M 456.5,225.5 C 456.56,224.957 456.893,224.624 457.5,224.5C 458.814,229.652 458.814,234.652 457.5,239.5C 457.819,234.637 457.486,229.97 456.5,225.5 Z"/></g>
<g><path style="opacity:1" fill="#4b8395" d="M 193.5,255.5 C 188.331,256.381 182.998,257.048 177.5,257.5C 177.918,256.778 178.584,256.278 179.5,256C 184.155,255.501 188.821,255.334 193.5,255.5 Z"/></g>
<g><path style="opacity:1" fill="#7ad6f4" d="M 102.5,338.5 C 106.814,337.519 109.481,334.852 110.5,330.5C 109.531,322.556 109.198,314.556 109.5,306.5C 111.076,303.074 112.909,299.74 115,296.5C 116.159,290.836 115.492,285.502 113,280.5C 111.786,278.951 110.286,277.785 108.5,277C 98.0041,273.057 87.6707,268.723 77.5,264C 74.9604,259.033 72.7937,253.867 71,248.5C 64.1852,244.851 57.6852,240.851 51.5,236.5C 51.2504,235.078 50.417,234.078 49,233.5C 48.3333,226.833 48.3333,220.167 49,213.5C 49.6774,199.101 52.6774,185.101 58,171.5C 58.9435,172.263 59.4435,173.263 59.5,174.5C 58.4419,179.177 58.6085,183.843 60,188.5C 60.7485,186.668 61.7485,185.001 63,183.5C 64.5381,189.551 64.5381,195.551 63,201.5C 62.6667,200.5 62.3333,199.5 62,198.5C 61.8333,199.167 61.6667,199.833 61.5,200.5C 60.7913,207.355 60.7913,214.355 61.5,221.5C 63.1002,223.69 64.9336,225.69 67,227.5C 69.6849,227.173 72.5182,227.173 75.5,227.5C 75.5,226.5 75.5,225.5 75.5,224.5C 76.8333,224.5 78.1667,224.5 79.5,224.5C 79.5,227.167 79.5,229.833 79.5,232.5C 83.8244,232.536 87.6577,233.869 91,236.5C 92.113,237.76 92.2797,238.927 91.5,240C 92.624,240.249 93.624,240.749 94.5,241.5C 94.838,245.388 96.338,248.722 99,251.5C 100.729,248.921 102.562,248.921 104.5,251.5C 106.565,256.544 108.898,261.211 111.5,265.5C 113.167,265.5 114.833,265.5 116.5,265.5C 116.413,268.598 116.913,268.932 118,266.5C 120.696,267.672 122.363,269.672 123,272.5C 124.666,271.66 124.833,272.16 123.5,274C 124.325,275.688 125.325,275.855 126.5,274.5C 127.452,276.045 127.785,277.712 127.5,279.5C 131.991,280.166 134.157,282.833 134,287.5C 135.367,286.476 136.2,286.976 136.5,289C 135.815,291.795 135.315,294.628 135,297.5C 132.642,299.024 130.809,301.024 129.5,303.5C 130.489,304.468 131.156,305.635 131.5,307C 129.904,311.243 128.237,315.409 126.5,319.5C 125.158,318.098 124.324,318.431 124,320.5C 123.829,325.533 123.329,330.533 122.5,335.5C 120.423,336.988 119.423,338.988 119.5,341.5C 118.022,341.238 116.689,341.571 115.5,342.5C 115.745,344.922 115.745,347.255 115.5,349.5C 114.395,350.892 113.061,352.059 111.5,353C 112.793,353.49 114.127,353.657 115.5,353.5C 115.433,355.401 115.767,357.234 116.5,359C 119.995,361.8 122.661,365.3 124.5,369.5C 126.747,370.245 128.58,371.578 130,373.5C 131.08,377.291 133.58,378.957 137.5,378.5C 137.649,379.552 137.483,380.552 137,381.5C 134.122,380.311 131.288,378.978 128.5,377.5C 127.914,377.709 127.414,378.043 127,378.5C 124.957,376.792 123.29,374.792 122,372.5C 121.586,372.957 121.086,373.291 120.5,373.5C 119.452,372.617 118.285,371.95 117,371.5C 115.944,373.436 116.777,375.103 119.5,376.5C 120.799,378.307 120.632,379.973 119,381.5C 117.285,378.603 114.785,377.269 111.5,377.5C 110.455,374.615 108.455,372.448 105.5,371C 106.451,370.282 106.617,369.449 106,368.5C 103.692,365.509 100.692,363.509 97,362.5C 96.1531,359.51 97.3198,358.176 100.5,358.5C 97.3866,351.414 98.0533,344.747 102.5,338.5 Z"/></g>
<g><path style="opacity:1" fill="#7c8998" d="M 47.5,247.5 C 52.2543,250.627 57.0876,253.627 62,256.5C 64.0973,261.759 66.264,266.926 68.5,272C 80.3361,277.332 92.3361,282.165 104.5,286.5C 104.582,293.007 102.415,298.674 98,303.5C 97.8981,311.504 97.8981,319.504 98,327.5C 94.7814,329.645 91.4481,331.645 88,333.5C 85.928,338.24 84.928,343.24 85,348.5C 68.8898,327.276 57.8898,303.609 52,277.5C 49.8933,267.587 48.3933,257.587 47.5,247.5 Z"/></g>
<g><path style="opacity:0.149" fill="#9d9d9d" d="M 44.5,298.5 C 46.1042,299.287 46.7709,300.62 46.5,302.5C 45.3263,301.486 44.6596,300.153 44.5,298.5 Z"/></g>
<g><path style="opacity:0.247" fill="#818181" d="M 46.5,302.5 C 48.0156,305.08 47.3489,307.08 44.5,308.5C 45.6298,306.685 46.2964,304.685 46.5,302.5 Z"/></g>
<g><path style="opacity:0.055" fill="#9d9d9d" d="M 51.5,320.5 C 53.3318,319.282 54.3318,319.949 54.5,322.5C 53.5,321.833 52.5,321.167 51.5,320.5 Z"/></g>
<g><path style="opacity:0.063" fill="#adadad" d="M 451.5,321.5 C 451.573,323.027 450.906,324.027 449.5,324.5C 449.427,322.973 450.094,321.973 451.5,321.5 Z"/></g>
<g><path style="opacity:0.357" fill="#868686" d="M 33.5,323.5 C 33.573,325.027 32.9063,326.027 31.5,326.5C 31.427,324.973 32.0937,323.973 33.5,323.5 Z"/></g>
<g><path style="opacity:0.235" fill="#818182" d="M 31.5,326.5 C 31.573,328.027 30.9063,329.027 29.5,329.5C 29.427,327.973 30.0937,326.973 31.5,326.5 Z"/></g>
<g><path style="opacity:1" fill="#66a6ba" d="M 109.5,306.5 C 109.198,314.556 109.531,322.556 110.5,330.5C 109.481,334.852 106.814,337.519 102.5,338.5C 104.5,336.329 106.334,333.996 108,331.5C 108.171,322.99 108.671,314.657 109.5,306.5 Z"/></g>
<g><path style="opacity:0.024" fill="#bfbfbf" d="M 45.5,329.5 C 45.573,331.027 44.9063,332.027 43.5,332.5C 43.427,330.973 44.0937,329.973 45.5,329.5 Z"/></g>
<g><path style="opacity:0.063" fill="#adadad" d="M 57.5,329.5 C 58.9063,329.973 59.573,330.973 59.5,332.5C 58.0937,332.027 57.427,331.027 57.5,329.5 Z"/></g>
<g><path style="opacity:0.161" fill="#9d9d9d" d="M 19.5,347.5 C 19.573,349.027 18.9063,350.027 17.5,350.5C 17.427,348.973 18.0937,347.973 19.5,347.5 Z"/></g>
<g><path style="opacity:0.004" fill="#c8c8c8" d="M 406.5,384.5 C 406.5,386.5 405.5,387.5 403.5,387.5C 404.167,386.167 405.167,385.167 406.5,384.5 Z"/></g>
<g><path style="opacity:0.306" fill="#7f7f7f" d="M 105.5,391.5 C 107.404,391.738 108.738,392.738 109.5,394.5C 107.596,394.262 106.262,393.262 105.5,391.5 Z"/></g>
<g><path style="opacity:0.12" fill="#939395" d="M 17.5,389.5 C 16.7588,395.471 16.4255,401.471 16.5,407.5C 15.8367,405.359 15.5034,403.025 15.5,400.5C 15.3629,396.553 16.0296,392.886 17.5,389.5 Z"/></g>
<g><path style="opacity:0.145" fill="#9a9a9a" d="M 121.5,404.5 C 123.027,404.427 124.027,405.094 124.5,406.5C 122.973,406.573 121.973,405.906 121.5,404.5 Z"/></g>
<g><path style="opacity:1" fill="#7cd5f2" d="M 433.5,191.5 C 434.776,197.544 432.442,201.211 426.5,202.5C 425.811,204.444 425.311,206.444 425,208.5C 423.954,203.288 420.788,200.954 415.5,201.5C 415.5,202.5 415.5,203.5 415.5,204.5C 414.167,204.5 412.833,204.5 411.5,204.5C 410.629,210.901 408.629,216.901 405.5,222.5C 406.617,223.949 407.284,225.616 407.5,227.5C 406.702,230.893 405.702,234.226 404.5,237.5C 403.38,238.833 402.047,239.333 400.5,239C 404.143,232.072 403.643,231.905 399,238.5C 398.785,241.856 398.785,245.189 399,248.5C 397.249,249.809 395.749,249.475 394.5,247.5C 393.77,248.934 392.77,250.1 391.5,251C 394.051,252.516 393.718,253.349 390.5,253.5C 390.313,255.564 389.813,257.564 389,259.5C 386.998,261.503 385.498,263.836 384.5,266.5C 383.476,267.853 382.143,268.52 380.5,268.5C 380.5,269.5 380.5,270.5 380.5,271.5C 381.5,271.5 382.5,271.5 383.5,271.5C 383.335,274.518 383.502,277.518 384,280.5C 385.011,281.337 386.178,281.67 387.5,281.5C 386.599,285.241 387.932,287.241 391.5,287.5C 392.348,291.561 393.515,295.561 395,299.5C 395.308,298.692 395.808,298.025 396.5,297.5C 399.899,299.312 403.566,299.979 407.5,299.5C 407.336,302.187 407.503,304.854 408,307.5C 411.33,310.193 411.163,312.693 407.5,315C 409.1,316.748 411.1,317.915 413.5,318.5C 412.833,319.167 412.167,319.833 411.5,320.5C 412.522,321.354 413.355,322.354 414,323.5C 414.5,322.5 415,321.5 415.5,320.5C 414.572,319.232 414.405,317.899 415,316.5C 417.461,313.473 419.461,310.14 421,306.5C 424.377,303.987 428.21,302.987 432.5,303.5C 432.909,298.396 433.409,293.063 434,287.5C 435.667,286.833 437.333,286.167 439,285.5C 439.167,283.167 439.333,280.833 439.5,278.5C 439.426,275.713 438.76,273.213 437.5,271C 439.027,267.658 440.194,264.158 441,260.5C 442.026,252.696 441.526,245.029 439.5,237.5C 439.667,236.833 439.833,236.167 440,235.5C 441.356,236.38 442.856,236.714 444.5,236.5C 444.703,234.61 444.037,233.11 442.5,232C 442.833,231.667 443.167,231.333 443.5,231C 447.7,229.633 452.033,229.133 456.5,229.5C 456.528,231.582 455.861,233.416 454.5,235C 455.646,242.086 455.812,249.253 455,256.5C 453.597,258.59 452.43,260.756 451.5,263C 452.759,267.866 452.592,272.699 451,277.5C 450.667,277.167 450.333,276.833 450,276.5C 449.162,282.513 448.329,288.513 447.5,294.5C 423.674,360.492 378.34,404.325 311.5,426C 259.952,440.204 209.952,436.204 161.5,414C 160.167,413 160.167,412 161.5,411C 183.136,399.852 203.803,387.185 223.5,373C 229.22,367.714 228.386,363.88 221,361.5C 208.142,368.684 195.642,376.517 183.5,385C 173.258,390.759 162.925,396.259 152.5,401.5C 149.482,401.665 146.482,401.498 143.5,401C 142.426,400.261 141.759,399.261 141.5,398C 142.703,396.632 143.703,395.132 144.5,393.5C 141.581,392.068 140.248,393.068 140.5,396.5C 138.5,396.5 136.5,396.5 134.5,396.5C 134.351,395.448 134.517,394.448 135,393.5C 138,392.5 140,390.5 141,387.5C 141.333,387.833 141.667,388.167 142,388.5C 143.833,387 145.667,385.5 147.5,384C 146.207,383.51 144.873,383.343 143.5,383.5C 143.5,382.5 143.5,381.5 143.5,380.5C 149.279,380.943 154.613,379.61 159.5,376.5C 166.13,375.179 172.463,373.179 178.5,370.5C 179.837,366.554 181.504,362.887 183.5,359.5C 185.199,359.66 186.866,359.494 188.5,359C 190.212,355.845 192.879,354.178 196.5,354C 198.308,350.97 200.975,349.137 204.5,348.5C 203.975,347.808 203.308,347.308 202.5,347C 204.403,345.553 206.07,343.886 207.5,342C 210.576,338.959 214.243,336.626 218.5,335C 216.141,326.448 217.474,318.615 222.5,311.5C 223.244,307.651 223.244,303.984 222.5,300.5C 221.833,298.5 221.167,296.5 220.5,294.5C 218.4,291.181 216.233,288.515 214,286.5C 213.732,281.35 212.732,276.35 211,271.5C 210.311,270.643 209.478,269.977 208.5,269.5C 204.91,270.854 203.244,269.521 203.5,265.5C 202.167,265.5 200.833,265.5 199.5,265.5C 198.422,262.57 197.922,259.57 198,256.5C 200.175,255.745 202.341,254.912 204.5,254C 208.578,252.872 211.578,254.205 213.5,258C 216.817,258.498 220.15,258.665 223.5,258.5C 223.5,261.5 223.5,264.5 223.5,267.5C 223.248,270.32 223.748,272.986 225,275.5C 229.333,281.167 233.667,286.833 238,292.5C 239.406,298.442 239.739,304.442 239,310.5C 233.961,317.805 233.295,325.472 237,333.5C 242.323,342.152 245.99,351.485 248,361.5C 251.499,365.672 254.166,370.338 256,375.5C 255.794,386.129 260.961,391.129 271.5,390.5C 276.75,390.698 281.75,390.031 286.5,388.5C 288.199,388.66 289.866,388.494 291.5,388C 305.501,380.177 314.834,368.677 319.5,353.5C 323.961,353.21 326.795,350.877 328,346.5C 328.333,341.833 328.667,337.167 329,332.5C 333.603,327.896 338.77,324.062 344.5,321C 349.464,316.443 351.464,310.777 350.5,304C 349.467,296.182 348.967,288.348 349,280.5C 350.333,278.5 351.667,276.5 353,274.5C 360.276,268.226 367.276,261.559 374,254.5C 381.444,244.677 386.277,233.677 388.5,221.5C 387.612,216.391 384.612,214.224 379.5,215C 374.009,217.22 368.342,218.72 362.5,219.5C 361.022,219.762 359.689,219.429 358.5,218.5C 361.217,218.026 363.55,217.026 365.5,215.5C 372.898,211.966 380.231,208.133 387.5,204C 389.093,203.051 390.426,201.885 391.5,200.5C 402.495,196.685 407.662,189.018 407,177.5C 404.713,174.538 401.88,172.371 398.5,171C 405.798,171.183 413.131,171.516 420.5,172C 422.78,175.947 425.447,179.613 428.5,183C 430.134,183.494 431.801,183.66 433.5,183.5C 433.5,186.167 433.5,188.833 433.5,191.5 Z"/></g>
<g><path style="opacity:1" fill="#548c9d" d="M 286.5,388.5 C 281.75,390.031 276.75,390.698 271.5,390.5C 276.29,389.275 281.29,388.608 286.5,388.5 Z"/></g>
<g><path style="opacity:1" fill="#04080b" d="M 372.5,302.5 C 381.136,302.653 384.302,306.986 382,315.5C 377.892,327.052 373.225,338.385 368,349.5C 363.865,353.191 359.031,354.358 353.5,353C 350.226,350.523 348.893,347.19 349.5,343C 350.905,335.543 352.072,328.043 353,320.5C 359.644,314.69 366.144,308.69 372.5,302.5 Z"/></g>
<g><path style="opacity:1" fill="#606d7b" d="M 367.5,319.5 C 368.376,319.369 369.043,319.702 369.5,320.5C 366.028,327.754 362.861,335.088 360,342.5C 361.581,336.296 362.914,329.963 364,323.5C 365.376,322.295 366.542,320.962 367.5,319.5 Z"/></g>
<g><path style="opacity:0.282" fill="#8c8c8c" d="M 130.5,411.5 C 130.027,412.906 129.027,413.573 127.5,413.5C 127.973,412.094 128.973,411.427 130.5,411.5 Z"/></g>
<g><path style="opacity:0.239" fill="#929292" d="M 4.5,414.5 C 5.93127,415.78 6.59794,417.447 6.5,419.5C 5.06873,418.22 4.40206,416.553 4.5,414.5 Z"/></g>
<g><path style="opacity:0.725" fill="#5e5e5e" d="M 119.5,416.5 C 117.815,418.818 115.481,419.818 112.5,419.5C 114.604,418.088 116.937,417.088 119.5,416.5 Z"/></g>
<g><path style="opacity:0.451" fill="#696969" d="M 93.5,425.5 C 91.5615,427.163 89.2282,427.829 86.5,427.5C 88.5994,426.388 90.9327,425.721 93.5,425.5 Z"/></g>
<g><path style="opacity:0.102" fill="#b4b4b7" d="M 30.5,426.5 C 32.153,426.66 33.4863,427.326 34.5,428.5C 32.6203,428.771 31.287,428.104 30.5,426.5 Z"/></g>
<g><path style="opacity:0.102" fill="#7d7d7d" d="M 126.5,427.5 C 125.713,429.104 124.38,429.771 122.5,429.5C 123.514,428.326 124.847,427.66 126.5,427.5 Z"/></g>
<g><path style="opacity:0.869" fill="#6a6869" d="M 339.5,429.5 C 337.574,431.293 335.241,432.293 332.5,432.5C 334.229,430.273 336.562,429.273 339.5,429.5 Z"/></g>
<g><path style="opacity:0.216" fill="#474748" d="M 41.5,430.5 C 49.4712,431.323 57.4712,431.656 65.5,431.5C 62.3509,432.165 59.0175,432.498 55.5,432.5C 50.5629,432.7 45.8962,432.033 41.5,430.5 Z"/></g>
<g><path style="opacity:0.439" fill="#7c7c7c" d="M 15.5,432.5 C 17.4044,432.738 18.7377,433.738 19.5,435.5C 17.5956,435.262 16.2623,434.262 15.5,432.5 Z"/></g>
<g><path style="opacity:0.118" fill="#989898" d="M 173.5,432.5 C 175.553,432.402 177.22,433.069 178.5,434.5C 176.447,434.598 174.78,433.931 173.5,432.5 Z"/></g>
<g><path style="opacity:0.004" fill="#b6b6b6" d="M 97.5,437.5 C 94.9164,439.472 91.9164,440.472 88.5,440.5C 91.2154,438.928 94.2154,437.928 97.5,437.5 Z"/></g>
</svg>
